<svg width="24" height="24" viewBox="0 0 24 24" fill="none" xmlns="http://www.w3.org/2000/svg">
<path fill-rule="evenodd" clip-rule="evenodd" d="M12 2C6.47715 2 2 6.47715 2 12C2 17.5228 6.47715 22 12 22C17.5228 22 22 17.5228 22 12C22 6.47715 17.5228 2 12 2ZM17.3856 7.61445L13.1712 11.8289C12.7807 12.2194 12.1476 12.2194 11.7571 11.8289L7.54269 7.61445C7.30872 7.38048 7.00036 7.24074 6.67134 7.21487L6.61445 7.21487C6.06217 7.28882 5.64574 7.8289 5.71969 8.38118L6.47715 14.8289C6.58156 15.6321 7.28828 16.2149 8.11445 16.2149H15.8856C16.7117 16.2149 17.4184 15.6321 17.5229 14.8289L18.2803 8.38118C18.3543 7.8289 17.9378 7.28882 17.3856 7.21487L17.3287 7.21487C17.0003 7.24074 16.6919 7.38048 16.4579 7.61445H16.3856Z" fill="#2E76DE"/>
</svg>
